<mxfile host="app.diagrams.net" agent="Mozilla/5.0 (Windows NT 10.0; Win64; x64) AppleWebKit/537.36 (KHTML, like Gecko) Chrome/140.0.0.0 Safari/537.36" version="28.2.3">
  <diagram name="Page-1" id="8apZJDGCBnvToaNLSjdj">
    <mxGraphModel grid="1" page="1" gridSize="10" guides="1" tooltips="1" connect="1" arrows="1" fold="1" pageScale="1" pageWidth="850" pageHeight="1100" math="0" shadow="0">
      <root>
        <mxCell id="0" />
        <mxCell id="1" parent="0" />
        <mxCell id="4Tt84nbYW9nu75NkAF1R-1" value="customer" style="whiteSpace=wrap;html=1;align=center;" vertex="1" parent="1">
          <mxGeometry x="10" y="180" width="100" height="40" as="geometry" />
        </mxCell>
        <mxCell id="hCspTybFWiK93IbWxItk-1" value="name" style="ellipse;whiteSpace=wrap;html=1;align=center;" vertex="1" parent="1">
          <mxGeometry x="-70" y="100" width="100" height="40" as="geometry" />
        </mxCell>
        <mxCell id="hCspTybFWiK93IbWxItk-2" value="" style="endArrow=none;html=1;rounded=0;entryX=0.5;entryY=0;entryDx=0;entryDy=0;exitX=0.721;exitY=0.928;exitDx=0;exitDy=0;exitPerimeter=0;" edge="1" parent="1" source="hCspTybFWiK93IbWxItk-1" target="4Tt84nbYW9nu75NkAF1R-1">
          <mxGeometry relative="1" as="geometry">
            <mxPoint x="30" y="180" as="sourcePoint" />
            <mxPoint x="190" y="180" as="targetPoint" />
          </mxGeometry>
        </mxCell>
        <mxCell id="hCspTybFWiK93IbWxItk-3" value="email addres" style="ellipse;whiteSpace=wrap;html=1;align=center;" vertex="1" parent="1">
          <mxGeometry x="30" y="80" width="100" height="40" as="geometry" />
        </mxCell>
        <mxCell id="hCspTybFWiK93IbWxItk-4" value="" style="endArrow=none;html=1;rounded=0;entryX=0.5;entryY=1;entryDx=0;entryDy=0;exitX=0.5;exitY=0;exitDx=0;exitDy=0;" edge="1" parent="1" source="4Tt84nbYW9nu75NkAF1R-1" target="hCspTybFWiK93IbWxItk-3">
          <mxGeometry relative="1" as="geometry">
            <mxPoint x="30" y="180" as="sourcePoint" />
            <mxPoint x="190" y="180" as="targetPoint" />
          </mxGeometry>
        </mxCell>
        <mxCell id="hCspTybFWiK93IbWxItk-5" value="shipping address" style="ellipse;whiteSpace=wrap;html=1;align=center;" vertex="1" parent="1">
          <mxGeometry x="100" y="120" width="100" height="40" as="geometry" />
        </mxCell>
        <mxCell id="hCspTybFWiK93IbWxItk-6" value="" style="endArrow=none;html=1;rounded=0;entryX=0;entryY=1;entryDx=0;entryDy=0;exitX=0.5;exitY=0;exitDx=0;exitDy=0;" edge="1" parent="1" source="4Tt84nbYW9nu75NkAF1R-1" target="hCspTybFWiK93IbWxItk-5">
          <mxGeometry relative="1" as="geometry">
            <mxPoint x="20" y="200" as="sourcePoint" />
            <mxPoint x="180" y="200" as="targetPoint" />
          </mxGeometry>
        </mxCell>
        <mxCell id="hCspTybFWiK93IbWxItk-7" value="&lt;b&gt;unique indentifier&lt;/b&gt;" style="ellipse;whiteSpace=wrap;html=1;align=center;fontStyle=4;" vertex="1" parent="1">
          <mxGeometry x="-130" y="150" width="100" height="40" as="geometry" />
        </mxCell>
        <mxCell id="hCspTybFWiK93IbWxItk-8" value="" style="endArrow=none;html=1;rounded=0;exitX=1;exitY=0.5;exitDx=0;exitDy=0;entryX=0;entryY=0.5;entryDx=0;entryDy=0;" edge="1" parent="1" source="hCspTybFWiK93IbWxItk-7" target="4Tt84nbYW9nu75NkAF1R-1">
          <mxGeometry relative="1" as="geometry">
            <mxPoint x="270" y="430" as="sourcePoint" />
            <mxPoint x="430" y="430" as="targetPoint" />
          </mxGeometry>
        </mxCell>
        <mxCell id="hCspTybFWiK93IbWxItk-9" value="name" style="ellipse;whiteSpace=wrap;html=1;align=center;" vertex="1" parent="1">
          <mxGeometry x="210" y="440" width="100" height="40" as="geometry" />
        </mxCell>
        <mxCell id="hCspTybFWiK93IbWxItk-10" value="product" style="whiteSpace=wrap;html=1;align=center;" vertex="1" parent="1">
          <mxGeometry x="310" y="500" width="100" height="40" as="geometry" />
        </mxCell>
        <mxCell id="hCspTybFWiK93IbWxItk-11" value="category" style="ellipse;whiteSpace=wrap;html=1;align=center;" vertex="1" parent="1">
          <mxGeometry x="290" y="400" width="100" height="40" as="geometry" />
        </mxCell>
        <mxCell id="hCspTybFWiK93IbWxItk-13" value="&lt;b&gt;product ID&lt;/b&gt;" style="ellipse;whiteSpace=wrap;html=1;align=center;fontStyle=4;" vertex="1" parent="1">
          <mxGeometry x="160" y="480" width="100" height="40" as="geometry" />
        </mxCell>
        <mxCell id="hCspTybFWiK93IbWxItk-15" value="stock count" style="ellipse;whiteSpace=wrap;html=1;align=center;" vertex="1" parent="1">
          <mxGeometry x="420" y="440" width="100" height="40" as="geometry" />
        </mxCell>
        <mxCell id="hCspTybFWiK93IbWxItk-16" value="descriptive text" style="ellipse;whiteSpace=wrap;html=1;align=center;" vertex="1" parent="1">
          <mxGeometry x="430" y="500" width="100" height="40" as="geometry" />
        </mxCell>
        <mxCell id="hCspTybFWiK93IbWxItk-21" value="" style="endArrow=none;html=1;rounded=0;exitX=1;exitY=0.5;exitDx=0;exitDy=0;entryX=0;entryY=0.25;entryDx=0;entryDy=0;" edge="1" parent="1" source="hCspTybFWiK93IbWxItk-13" target="hCspTybFWiK93IbWxItk-10">
          <mxGeometry relative="1" as="geometry">
            <mxPoint x="150" y="770" as="sourcePoint" />
            <mxPoint x="310" y="770" as="targetPoint" />
          </mxGeometry>
        </mxCell>
        <mxCell id="hCspTybFWiK93IbWxItk-22" value="" style="endArrow=none;html=1;rounded=0;exitX=0.5;exitY=1;exitDx=0;exitDy=0;entryX=0;entryY=0;entryDx=0;entryDy=0;" edge="1" parent="1" source="hCspTybFWiK93IbWxItk-9" target="hCspTybFWiK93IbWxItk-10">
          <mxGeometry relative="1" as="geometry">
            <mxPoint x="150" y="770" as="sourcePoint" />
            <mxPoint x="310" y="770" as="targetPoint" />
          </mxGeometry>
        </mxCell>
        <mxCell id="hCspTybFWiK93IbWxItk-23" value="" style="endArrow=none;html=1;rounded=0;exitX=0.335;exitY=1.105;exitDx=0;exitDy=0;entryX=0.25;entryY=0;entryDx=0;entryDy=0;exitPerimeter=0;" edge="1" parent="1" source="hCspTybFWiK93IbWxItk-11" target="hCspTybFWiK93IbWxItk-10">
          <mxGeometry relative="1" as="geometry">
            <mxPoint x="150" y="770" as="sourcePoint" />
            <mxPoint x="310" y="770" as="targetPoint" />
          </mxGeometry>
        </mxCell>
        <mxCell id="hCspTybFWiK93IbWxItk-24" value="" style="endArrow=none;html=1;rounded=0;" edge="1" parent="1" target="hCspTybFWiK93IbWxItk-158">
          <mxGeometry relative="1" as="geometry">
            <mxPoint x="360" y="530" as="sourcePoint" />
            <mxPoint x="360" y="590" as="targetPoint" />
          </mxGeometry>
        </mxCell>
        <mxCell id="hCspTybFWiK93IbWxItk-25" value="" style="endArrow=none;html=1;rounded=0;entryX=0;entryY=0.5;entryDx=0;entryDy=0;exitX=1;exitY=0.25;exitDx=0;exitDy=0;" edge="1" parent="1" source="hCspTybFWiK93IbWxItk-10" target="hCspTybFWiK93IbWxItk-15">
          <mxGeometry relative="1" as="geometry">
            <mxPoint x="150" y="770" as="sourcePoint" />
            <mxPoint x="310" y="770" as="targetPoint" />
          </mxGeometry>
        </mxCell>
        <mxCell id="hCspTybFWiK93IbWxItk-26" value="" style="endArrow=none;html=1;rounded=0;entryX=0;entryY=0.5;entryDx=0;entryDy=0;exitX=1;exitY=0.5;exitDx=0;exitDy=0;" edge="1" parent="1" source="hCspTybFWiK93IbWxItk-10" target="hCspTybFWiK93IbWxItk-16">
          <mxGeometry relative="1" as="geometry">
            <mxPoint x="150" y="770" as="sourcePoint" />
            <mxPoint x="310" y="770" as="targetPoint" />
          </mxGeometry>
        </mxCell>
        <mxCell id="hCspTybFWiK93IbWxItk-34" value="" style="endArrow=none;html=1;rounded=0;exitX=1;exitY=0.5;exitDx=0;exitDy=0;entryX=0;entryY=0.5;entryDx=0;entryDy=0;" edge="1" parent="1" source="hCspTybFWiK93IbWxItk-48" target="hCspTybFWiK93IbWxItk-36">
          <mxGeometry relative="1" as="geometry">
            <mxPoint x="50" y="440" as="sourcePoint" />
            <mxPoint x="50" y="340" as="targetPoint" />
          </mxGeometry>
        </mxCell>
        <mxCell id="hCspTybFWiK93IbWxItk-35" value="session" style="whiteSpace=wrap;html=1;align=center;" vertex="1" parent="1">
          <mxGeometry x="10" y="330" width="100" height="40" as="geometry" />
        </mxCell>
        <mxCell id="hCspTybFWiK93IbWxItk-36" value="have_cs" style="shape=rhombus;perimeter=rhombusPerimeter;whiteSpace=wrap;html=1;align=center;" vertex="1" parent="1">
          <mxGeometry x="20" y="240" width="80" height="50" as="geometry" />
        </mxCell>
        <mxCell id="hCspTybFWiK93IbWxItk-37" value="" style="endArrow=none;html=1;rounded=0;exitX=0.5;exitY=1;exitDx=0;exitDy=0;entryX=0.5;entryY=0;entryDx=0;entryDy=0;" edge="1" parent="1" source="4Tt84nbYW9nu75NkAF1R-1" target="hCspTybFWiK93IbWxItk-36">
          <mxGeometry relative="1" as="geometry">
            <mxPoint x="270" y="430" as="sourcePoint" />
            <mxPoint x="430" y="430" as="targetPoint" />
          </mxGeometry>
        </mxCell>
        <mxCell id="hCspTybFWiK93IbWxItk-40" value="" style="endArrow=none;html=1;rounded=0;exitX=0;exitY=0.75;exitDx=0;exitDy=0;" edge="1" parent="1" source="hCspTybFWiK93IbWxItk-35" target="hCspTybFWiK93IbWxItk-41">
          <mxGeometry relative="1" as="geometry">
            <mxPoint x="20" y="540" as="sourcePoint" />
            <mxPoint x="180" y="540" as="targetPoint" />
          </mxGeometry>
        </mxCell>
        <mxCell id="hCspTybFWiK93IbWxItk-41" value="start time" style="ellipse;whiteSpace=wrap;html=1;align=center;" vertex="1" parent="1">
          <mxGeometry x="-120" y="360" width="100" height="40" as="geometry" />
        </mxCell>
        <mxCell id="hCspTybFWiK93IbWxItk-42" value="end time" style="ellipse;whiteSpace=wrap;html=1;align=center;" vertex="1" parent="1">
          <mxGeometry x="-110" y="300" width="100" height="40" as="geometry" />
        </mxCell>
        <mxCell id="hCspTybFWiK93IbWxItk-44" value="" style="endArrow=none;html=1;rounded=0;entryX=1;entryY=1;entryDx=0;entryDy=0;exitX=0;exitY=0.5;exitDx=0;exitDy=0;exitPerimeter=0;" edge="1" parent="1" source="hCspTybFWiK93IbWxItk-35" target="hCspTybFWiK93IbWxItk-42">
          <mxGeometry relative="1" as="geometry">
            <mxPoint x="20" y="540" as="sourcePoint" />
            <mxPoint x="180" y="540" as="targetPoint" />
          </mxGeometry>
        </mxCell>
        <mxCell id="hCspTybFWiK93IbWxItk-46" value="" style="endArrow=none;html=1;rounded=0;entryX=0.5;entryY=1;entryDx=0;entryDy=0;exitX=0.5;exitY=0;exitDx=0;exitDy=0;" edge="1" parent="1" source="hCspTybFWiK93IbWxItk-49" target="hCspTybFWiK93IbWxItk-35">
          <mxGeometry relative="1" as="geometry">
            <mxPoint x="290" y="300" as="sourcePoint" />
            <mxPoint x="410" y="410" as="targetPoint" />
          </mxGeometry>
        </mxCell>
        <mxCell id="hCspTybFWiK93IbWxItk-47" value="device" style="whiteSpace=wrap;html=1;align=center;direction=west;" vertex="1" parent="1">
          <mxGeometry x="-135" y="520" width="100" height="40" as="geometry" />
        </mxCell>
        <mxCell id="hCspTybFWiK93IbWxItk-48" value="store" style="whiteSpace=wrap;html=1;align=center;" vertex="1" parent="1">
          <mxGeometry x="-120" y="250" width="70" height="30" as="geometry" />
        </mxCell>
        <mxCell id="hCspTybFWiK93IbWxItk-49" value="associate" style="shape=rhombus;perimeter=rhombusPerimeter;whiteSpace=wrap;html=1;align=center;" vertex="1" parent="1">
          <mxGeometry x="-130" y="430" width="120" height="60" as="geometry" />
        </mxCell>
        <mxCell id="hCspTybFWiK93IbWxItk-51" value="" style="endArrow=none;html=1;rounded=0;entryX=0.5;entryY=1;entryDx=0;entryDy=0;exitX=0.5;exitY=1;exitDx=0;exitDy=0;" edge="1" parent="1" source="hCspTybFWiK93IbWxItk-47" target="hCspTybFWiK93IbWxItk-49">
          <mxGeometry relative="1" as="geometry">
            <mxPoint x="205" y="560" as="sourcePoint" />
            <mxPoint x="365" y="560" as="targetPoint" />
          </mxGeometry>
        </mxCell>
        <mxCell id="hCspTybFWiK93IbWxItk-52" value="IP address" style="ellipse;whiteSpace=wrap;html=1;align=center;fontStyle=4;" vertex="1" parent="1">
          <mxGeometry x="-120" y="590" width="100" height="40" as="geometry" />
        </mxCell>
        <mxCell id="hCspTybFWiK93IbWxItk-53" value="device type" style="ellipse;whiteSpace=wrap;html=1;align=center;" vertex="1" parent="1">
          <mxGeometry x="-235" y="575" width="100" height="40" as="geometry" />
        </mxCell>
        <mxCell id="hCspTybFWiK93IbWxItk-57" value="source of visit" style="ellipse;whiteSpace=wrap;html=1;align=center;" vertex="1" parent="1">
          <mxGeometry x="-270" y="520" width="100" height="40" as="geometry" />
        </mxCell>
        <mxCell id="hCspTybFWiK93IbWxItk-60" value="" style="endArrow=none;html=1;rounded=0;exitX=0.5;exitY=1;exitDx=0;exitDy=0;entryX=0.5;entryY=0;entryDx=0;entryDy=0;" edge="1" parent="1" source="hCspTybFWiK93IbWxItk-36" target="hCspTybFWiK93IbWxItk-35">
          <mxGeometry relative="1" as="geometry">
            <mxPoint x="70" y="410" as="sourcePoint" />
            <mxPoint x="230" y="410" as="targetPoint" />
          </mxGeometry>
        </mxCell>
        <mxCell id="hCspTybFWiK93IbWxItk-62" value="" style="endArrow=none;html=1;rounded=0;exitX=1;exitY=0.5;exitDx=0;exitDy=0;entryX=1;entryY=0.5;entryDx=0;entryDy=0;" edge="1" parent="1" source="hCspTybFWiK93IbWxItk-57" target="hCspTybFWiK93IbWxItk-47">
          <mxGeometry relative="1" as="geometry">
            <mxPoint x="310.00000000000455" y="570" as="sourcePoint" />
            <mxPoint x="-140" y="540" as="targetPoint" />
          </mxGeometry>
        </mxCell>
        <mxCell id="hCspTybFWiK93IbWxItk-63" value="" style="endArrow=none;html=1;rounded=0;exitX=0;exitY=0;exitDx=0;exitDy=0;entryX=0.5;entryY=0;entryDx=0;entryDy=0;" edge="1" parent="1" source="hCspTybFWiK93IbWxItk-52" target="hCspTybFWiK93IbWxItk-47">
          <mxGeometry relative="1" as="geometry">
            <mxPoint x="30" y="500" as="sourcePoint" />
            <mxPoint x="-35" y="560" as="targetPoint" />
          </mxGeometry>
        </mxCell>
        <mxCell id="hCspTybFWiK93IbWxItk-64" value="" style="endArrow=none;html=1;rounded=0;entryX=0.625;entryY=-0.059;entryDx=0;entryDy=0;exitX=0.5;exitY=0;exitDx=0;exitDy=0;entryPerimeter=0;" edge="1" parent="1" source="hCspTybFWiK93IbWxItk-53" target="hCspTybFWiK93IbWxItk-47">
          <mxGeometry relative="1" as="geometry">
            <mxPoint x="200" y="630" as="sourcePoint" />
            <mxPoint x="190" y="500" as="targetPoint" />
          </mxGeometry>
        </mxCell>
        <mxCell id="hCspTybFWiK93IbWxItk-69" style="edgeStyle=orthogonalEdgeStyle;rounded=0;orthogonalLoop=1;jettySize=auto;html=1;exitX=0;exitY=0.5;exitDx=0;exitDy=0;entryX=1;entryY=0.5;entryDx=0;entryDy=0;" edge="1" parent="1" source="hCspTybFWiK93IbWxItk-66" target="hCspTybFWiK93IbWxItk-35">
          <mxGeometry relative="1" as="geometry" />
        </mxCell>
        <mxCell id="hCspTybFWiK93IbWxItk-66" value="belong to" style="shape=rhombus;perimeter=rhombusPerimeter;whiteSpace=wrap;html=1;align=center;" vertex="1" parent="1">
          <mxGeometry x="130" y="320" width="120" height="60" as="geometry" />
        </mxCell>
        <mxCell id="hCspTybFWiK93IbWxItk-68" value="activity" style="shape=ext;margin=3;double=1;whiteSpace=wrap;html=1;align=center;" vertex="1" parent="1">
          <mxGeometry x="270" y="330" width="100" height="40" as="geometry" />
        </mxCell>
        <mxCell id="hCspTybFWiK93IbWxItk-70" value="" style="shape=link;html=1;rounded=0;exitX=0.908;exitY=0.509;exitDx=0;exitDy=0;exitPerimeter=0;entryX=0;entryY=0.5;entryDx=0;entryDy=0;" edge="1" parent="1" source="hCspTybFWiK93IbWxItk-66" target="hCspTybFWiK93IbWxItk-68">
          <mxGeometry width="100" relative="1" as="geometry">
            <mxPoint x="280" y="410" as="sourcePoint" />
            <mxPoint x="380" y="410" as="targetPoint" />
          </mxGeometry>
        </mxCell>
        <mxCell id="hCspTybFWiK93IbWxItk-72" value="timeplate" style="ellipse;whiteSpace=wrap;html=1;align=center;" vertex="1" parent="1">
          <mxGeometry x="190" y="270" width="100" height="40" as="geometry" />
        </mxCell>
        <mxCell id="hCspTybFWiK93IbWxItk-73" value="" style="endArrow=none;html=1;rounded=0;entryX=0.25;entryY=0;entryDx=0;entryDy=0;exitX=0.744;exitY=0.923;exitDx=0;exitDy=0;exitPerimeter=0;" edge="1" parent="1" source="hCspTybFWiK93IbWxItk-72" target="hCspTybFWiK93IbWxItk-68">
          <mxGeometry relative="1" as="geometry">
            <mxPoint x="250" y="230" as="sourcePoint" />
            <mxPoint x="410" y="230" as="targetPoint" />
          </mxGeometry>
        </mxCell>
        <mxCell id="hCspTybFWiK93IbWxItk-74" value="" style="endArrow=none;html=1;rounded=0;exitX=1;exitY=0.5;exitDx=0;exitDy=0;" edge="1" parent="1" source="hCspTybFWiK93IbWxItk-68" target="hCspTybFWiK93IbWxItk-75">
          <mxGeometry relative="1" as="geometry">
            <mxPoint x="250" y="410" as="sourcePoint" />
            <mxPoint x="410" y="410" as="targetPoint" />
          </mxGeometry>
        </mxCell>
        <mxCell id="hCspTybFWiK93IbWxItk-75" value="process" style="shape=rhombus;perimeter=rhombusPerimeter;whiteSpace=wrap;html=1;align=center;" vertex="1" parent="1">
          <mxGeometry x="410" y="320" width="120" height="60" as="geometry" />
        </mxCell>
        <mxCell id="hCspTybFWiK93IbWxItk-78" value="check out" style="ellipse;whiteSpace=wrap;html=1;align=center;" vertex="1" parent="1">
          <mxGeometry x="410" y="240" width="70" height="30" as="geometry" />
        </mxCell>
        <mxCell id="hCspTybFWiK93IbWxItk-79" value="add to cart" style="ellipse;whiteSpace=wrap;html=1;align=center;" vertex="1" parent="1">
          <mxGeometry x="350" y="280" width="100" height="40" as="geometry" />
        </mxCell>
        <mxCell id="hCspTybFWiK93IbWxItk-80" value="search" style="ellipse;whiteSpace=wrap;html=1;align=center;" vertex="1" parent="1">
          <mxGeometry x="520" y="305" width="75" height="30" as="geometry" />
        </mxCell>
        <mxCell id="hCspTybFWiK93IbWxItk-81" value="view" style="ellipse;whiteSpace=wrap;html=1;align=center;" vertex="1" parent="1">
          <mxGeometry x="490" y="250" width="80" height="30" as="geometry" />
        </mxCell>
        <mxCell id="hCspTybFWiK93IbWxItk-82" value="" style="endArrow=none;html=1;rounded=0;entryX=0.5;entryY=1;entryDx=0;entryDy=0;exitX=0.5;exitY=0;exitDx=0;exitDy=0;" edge="1" parent="1" source="hCspTybFWiK93IbWxItk-75" target="hCspTybFWiK93IbWxItk-81">
          <mxGeometry relative="1" as="geometry">
            <mxPoint x="250" y="410" as="sourcePoint" />
            <mxPoint x="410" y="410" as="targetPoint" />
          </mxGeometry>
        </mxCell>
        <mxCell id="hCspTybFWiK93IbWxItk-83" value="" style="endArrow=none;html=1;rounded=0;entryX=1;entryY=0;entryDx=0;entryDy=0;exitX=0;exitY=0.5;exitDx=0;exitDy=0;" edge="1" parent="1" source="hCspTybFWiK93IbWxItk-80" target="hCspTybFWiK93IbWxItk-75">
          <mxGeometry relative="1" as="geometry">
            <mxPoint x="620" y="150" as="sourcePoint" />
            <mxPoint x="410" y="410" as="targetPoint" />
          </mxGeometry>
        </mxCell>
        <mxCell id="hCspTybFWiK93IbWxItk-85" value="" style="endArrow=none;html=1;rounded=0;entryX=0.5;entryY=1;entryDx=0;entryDy=0;" edge="1" parent="1" source="hCspTybFWiK93IbWxItk-75" target="hCspTybFWiK93IbWxItk-79">
          <mxGeometry relative="1" as="geometry">
            <mxPoint x="250" y="410" as="sourcePoint" />
            <mxPoint x="410" y="410" as="targetPoint" />
          </mxGeometry>
        </mxCell>
        <mxCell id="hCspTybFWiK93IbWxItk-87" value="" style="endArrow=none;html=1;rounded=0;entryX=0.5;entryY=1;entryDx=0;entryDy=0;exitX=0.5;exitY=0;exitDx=0;exitDy=0;" edge="1" parent="1" source="hCspTybFWiK93IbWxItk-75" target="hCspTybFWiK93IbWxItk-78">
          <mxGeometry relative="1" as="geometry">
            <mxPoint x="250" y="410" as="sourcePoint" />
            <mxPoint x="410" y="410" as="targetPoint" />
          </mxGeometry>
        </mxCell>
        <mxCell id="hCspTybFWiK93IbWxItk-88" value="payment" style="whiteSpace=wrap;html=1;align=center;" vertex="1" parent="1">
          <mxGeometry x="625" y="650" width="100" height="40" as="geometry" />
        </mxCell>
        <mxCell id="hCspTybFWiK93IbWxItk-89" value="" style="endArrow=none;html=1;rounded=0;entryX=1;entryY=0.5;entryDx=0;entryDy=0;exitX=0.5;exitY=0.25;exitDx=0;exitDy=0;exitPerimeter=0;" edge="1" parent="1" source="hCspTybFWiK93IbWxItk-88" target="hCspTybFWiK93IbWxItk-75">
          <mxGeometry relative="1" as="geometry">
            <mxPoint x="560" y="440" as="sourcePoint" />
            <mxPoint x="410" y="410" as="targetPoint" />
          </mxGeometry>
        </mxCell>
        <mxCell id="hCspTybFWiK93IbWxItk-90" value="" style="endArrow=none;html=1;rounded=0;entryX=0.5;entryY=1;entryDx=0;entryDy=0;exitX=0.5;exitY=0;exitDx=0;exitDy=0;" edge="1" parent="1" source="hCspTybFWiK93IbWxItk-91" target="hCspTybFWiK93IbWxItk-88">
          <mxGeometry relative="1" as="geometry">
            <mxPoint x="675" y="730" as="sourcePoint" />
            <mxPoint x="615" y="600" as="targetPoint" />
          </mxGeometry>
        </mxCell>
        <mxCell id="hCspTybFWiK93IbWxItk-91" value="link" style="shape=rhombus;perimeter=rhombusPerimeter;whiteSpace=wrap;html=1;align=center;" vertex="1" parent="1">
          <mxGeometry x="630" y="720" width="90" height="40" as="geometry" />
        </mxCell>
        <mxCell id="hCspTybFWiK93IbWxItk-92" value="" style="endArrow=none;html=1;rounded=0;exitX=0.5;exitY=1;exitDx=0;exitDy=0;" edge="1" parent="1" source="hCspTybFWiK93IbWxItk-91" target="hCspTybFWiK93IbWxItk-93">
          <mxGeometry relative="1" as="geometry">
            <mxPoint x="455" y="600" as="sourcePoint" />
            <mxPoint x="615" y="600" as="targetPoint" />
          </mxGeometry>
        </mxCell>
        <mxCell id="hCspTybFWiK93IbWxItk-93" value="credit card" style="whiteSpace=wrap;html=1;align=center;" vertex="1" parent="1">
          <mxGeometry x="625" y="770" width="100" height="40" as="geometry" />
        </mxCell>
        <mxCell id="hCspTybFWiK93IbWxItk-94" value="&lt;b&gt;card number&lt;/b&gt;" style="ellipse;whiteSpace=wrap;html=1;align=center;fontStyle=4;" vertex="1" parent="1">
          <mxGeometry x="585" y="870" width="100" height="40" as="geometry" />
        </mxCell>
        <mxCell id="hCspTybFWiK93IbWxItk-95" value="expiry date" style="ellipse;whiteSpace=wrap;html=1;align=center;" vertex="1" parent="1">
          <mxGeometry x="775" y="785" width="100" height="40" as="geometry" />
        </mxCell>
        <mxCell id="hCspTybFWiK93IbWxItk-96" value="name of cardholder" style="ellipse;whiteSpace=wrap;html=1;align=center;" vertex="1" parent="1">
          <mxGeometry x="735" y="725" width="100" height="45" as="geometry" />
        </mxCell>
        <mxCell id="hCspTybFWiK93IbWxItk-97" value="" style="endArrow=none;html=1;rounded=0;entryX=0;entryY=1;entryDx=0;entryDy=0;exitX=0.75;exitY=0;exitDx=0;exitDy=0;" edge="1" parent="1" source="hCspTybFWiK93IbWxItk-93" target="hCspTybFWiK93IbWxItk-96">
          <mxGeometry relative="1" as="geometry">
            <mxPoint x="455" y="600" as="sourcePoint" />
            <mxPoint x="615" y="600" as="targetPoint" />
          </mxGeometry>
        </mxCell>
        <mxCell id="hCspTybFWiK93IbWxItk-98" value="" style="endArrow=none;html=1;rounded=0;entryX=0;entryY=0.5;entryDx=0;entryDy=0;exitX=1;exitY=0.5;exitDx=0;exitDy=0;" edge="1" parent="1" source="hCspTybFWiK93IbWxItk-93" target="hCspTybFWiK93IbWxItk-95">
          <mxGeometry relative="1" as="geometry">
            <mxPoint x="455" y="600" as="sourcePoint" />
            <mxPoint x="615" y="600" as="targetPoint" />
          </mxGeometry>
        </mxCell>
        <mxCell id="hCspTybFWiK93IbWxItk-99" value="" style="endArrow=none;html=1;rounded=0;entryX=0.662;entryY=0.036;entryDx=0;entryDy=0;entryPerimeter=0;exitX=0.25;exitY=1;exitDx=0;exitDy=0;" edge="1" parent="1" source="hCspTybFWiK93IbWxItk-93" target="hCspTybFWiK93IbWxItk-94">
          <mxGeometry relative="1" as="geometry">
            <mxPoint x="455" y="600" as="sourcePoint" />
            <mxPoint x="615" y="600" as="targetPoint" />
          </mxGeometry>
        </mxCell>
        <mxCell id="hCspTybFWiK93IbWxItk-121" style="edgeStyle=orthogonalEdgeStyle;rounded=0;orthogonalLoop=1;jettySize=auto;html=1;exitX=0.5;exitY=1;exitDx=0;exitDy=0;entryX=0.5;entryY=0;entryDx=0;entryDy=0;" edge="1" parent="1" source="hCspTybFWiK93IbWxItk-103" target="hCspTybFWiK93IbWxItk-116">
          <mxGeometry relative="1" as="geometry" />
        </mxCell>
        <mxCell id="hCspTybFWiK93IbWxItk-103" value="linl_so" style="shape=rhombus;perimeter=rhombusPerimeter;whiteSpace=wrap;html=1;align=center;" vertex="1" parent="1">
          <mxGeometry y="400" width="120" height="60" as="geometry" />
        </mxCell>
        <mxCell id="hCspTybFWiK93IbWxItk-105" value="&lt;b&gt;order number&lt;/b&gt;" style="ellipse;whiteSpace=wrap;html=1;align=center;fontStyle=4;" vertex="1" parent="1">
          <mxGeometry x="-200" y="760" width="100" height="40" as="geometry" />
        </mxCell>
        <mxCell id="hCspTybFWiK93IbWxItk-106" value="" style="endArrow=none;html=1;rounded=0;exitX=0;exitY=0.5;exitDx=0;exitDy=0;entryX=1;entryY=0.5;entryDx=0;entryDy=0;" edge="1" parent="1" source="hCspTybFWiK93IbWxItk-116" target="hCspTybFWiK93IbWxItk-105">
          <mxGeometry relative="1" as="geometry">
            <mxPoint x="50" y="730" as="sourcePoint" />
            <mxPoint x="-70" y="795" as="targetPoint" />
          </mxGeometry>
        </mxCell>
        <mxCell id="hCspTybFWiK93IbWxItk-108" value="shipping address" style="ellipse;whiteSpace=wrap;html=1;align=center;direction=east;" vertex="1" parent="1">
          <mxGeometry x="-200" y="825" width="100" height="40" as="geometry" />
        </mxCell>
        <mxCell id="hCspTybFWiK93IbWxItk-109" value="date" style="ellipse;whiteSpace=wrap;html=1;align=center;" vertex="1" parent="1">
          <mxGeometry x="-120" y="860" width="100" height="40" as="geometry" />
        </mxCell>
        <mxCell id="hCspTybFWiK93IbWxItk-110" value="" style="endArrow=none;html=1;rounded=0;entryX=0.5;entryY=0;entryDx=0;entryDy=0;exitX=0.25;exitY=1;exitDx=0;exitDy=0;" edge="1" parent="1" source="hCspTybFWiK93IbWxItk-116" target="hCspTybFWiK93IbWxItk-109">
          <mxGeometry relative="1" as="geometry">
            <mxPoint x="25" y="800" as="sourcePoint" />
            <mxPoint x="350" y="620" as="targetPoint" />
          </mxGeometry>
        </mxCell>
        <mxCell id="hCspTybFWiK93IbWxItk-112" value="" style="endArrow=none;html=1;rounded=0;exitX=0.5;exitY=0;exitDx=0;exitDy=0;entryX=0;entryY=1;entryDx=0;entryDy=0;" edge="1" parent="1" source="hCspTybFWiK93IbWxItk-108" target="hCspTybFWiK93IbWxItk-116">
          <mxGeometry relative="1" as="geometry">
            <mxPoint x="190" y="620" as="sourcePoint" />
            <mxPoint y="815" as="targetPoint" />
          </mxGeometry>
        </mxCell>
        <mxCell id="hCspTybFWiK93IbWxItk-116" value="order" style="whiteSpace=wrap;html=1;align=center;" vertex="1" parent="1">
          <mxGeometry x="-50" y="760" width="100" height="40" as="geometry" />
        </mxCell>
        <mxCell id="hCspTybFWiK93IbWxItk-119" value="" style="endArrow=none;html=1;rounded=0;exitX=0.5;exitY=1;exitDx=0;exitDy=0;entryX=0.5;entryY=0;entryDx=0;entryDy=0;" edge="1" parent="1" source="hCspTybFWiK93IbWxItk-35" target="hCspTybFWiK93IbWxItk-103">
          <mxGeometry relative="1" as="geometry">
            <mxPoint x="250" y="410" as="sourcePoint" />
            <mxPoint x="410" y="410" as="targetPoint" />
          </mxGeometry>
        </mxCell>
        <mxCell id="hCspTybFWiK93IbWxItk-122" value="" style="endArrow=none;html=1;rounded=0;exitX=1;exitY=0.5;exitDx=0;exitDy=0;" edge="1" parent="1" source="hCspTybFWiK93IbWxItk-116" target="hCspTybFWiK93IbWxItk-123">
          <mxGeometry relative="1" as="geometry">
            <mxPoint x="250" y="410" as="sourcePoint" />
            <mxPoint x="410" y="410" as="targetPoint" />
          </mxGeometry>
        </mxCell>
        <mxCell id="hCspTybFWiK93IbWxItk-124" style="edgeStyle=orthogonalEdgeStyle;rounded=0;orthogonalLoop=1;jettySize=auto;html=1;exitX=1;exitY=0.5;exitDx=0;exitDy=0;entryX=0;entryY=0.25;entryDx=0;entryDy=0;" edge="1" parent="1" source="hCspTybFWiK93IbWxItk-123" target="hCspTybFWiK93IbWxItk-93">
          <mxGeometry relative="1" as="geometry" />
        </mxCell>
        <mxCell id="hCspTybFWiK93IbWxItk-123" value="pay" style="shape=rhombus;perimeter=rhombusPerimeter;whiteSpace=wrap;html=1;align=center;" vertex="1" parent="1">
          <mxGeometry x="280" y="750" width="120" height="60" as="geometry" />
        </mxCell>
        <mxCell id="hCspTybFWiK93IbWxItk-125" value="" style="endArrow=none;html=1;rounded=0;exitX=0;exitY=1;exitDx=0;exitDy=0;entryX=0.75;entryY=0;entryDx=0;entryDy=0;" edge="1" parent="1" source="hCspTybFWiK93IbWxItk-126" target="hCspTybFWiK93IbWxItk-116">
          <mxGeometry relative="1" as="geometry">
            <mxPoint x="190" y="620" as="sourcePoint" />
            <mxPoint y="800" as="targetPoint" />
          </mxGeometry>
        </mxCell>
        <mxCell id="hCspTybFWiK93IbWxItk-126" value="contain" style="shape=rhombus;perimeter=rhombusPerimeter;whiteSpace=wrap;html=1;align=center;" vertex="1" parent="1">
          <mxGeometry x="20" y="695" width="70" height="30" as="geometry" />
        </mxCell>
        <mxCell id="hCspTybFWiK93IbWxItk-127" value="item" style="whiteSpace=wrap;html=1;align=center;" vertex="1" parent="1">
          <mxGeometry x="110" y="690" width="100" height="40" as="geometry" />
        </mxCell>
        <mxCell id="hCspTybFWiK93IbWxItk-128" value="" style="endArrow=none;html=1;rounded=0;exitX=0;exitY=0.5;exitDx=0;exitDy=0;entryX=1;entryY=0.5;entryDx=0;entryDy=0;" edge="1" parent="1" source="hCspTybFWiK93IbWxItk-127" target="hCspTybFWiK93IbWxItk-126">
          <mxGeometry relative="1" as="geometry">
            <mxPoint x="190" y="570" as="sourcePoint" />
            <mxPoint x="120" y="710" as="targetPoint" />
          </mxGeometry>
        </mxCell>
        <mxCell id="hCspTybFWiK93IbWxItk-139" value="" style="endArrow=none;html=1;rounded=0;exitX=0.5;exitY=0;exitDx=0;exitDy=0;entryX=0;entryY=1;entryDx=0;entryDy=0;" edge="1" parent="1" source="hCspTybFWiK93IbWxItk-10" target="hCspTybFWiK93IbWxItk-75">
          <mxGeometry relative="1" as="geometry">
            <mxPoint x="430" y="560" as="sourcePoint" />
            <mxPoint x="590" y="560" as="targetPoint" />
          </mxGeometry>
        </mxCell>
        <mxCell id="hCspTybFWiK93IbWxItk-143" value="" style="shape=link;html=1;rounded=0;entryX=0.75;entryY=0;entryDx=0;entryDy=0;exitX=0;exitY=1;exitDx=0;exitDy=0;" edge="1" parent="1" source="hCspTybFWiK93IbWxItk-145" target="hCspTybFWiK93IbWxItk-127">
          <mxGeometry width="100" relative="1" as="geometry">
            <mxPoint x="240" y="650" as="sourcePoint" />
            <mxPoint x="200" y="740" as="targetPoint" />
          </mxGeometry>
        </mxCell>
        <mxCell id="hCspTybFWiK93IbWxItk-146" style="edgeStyle=orthogonalEdgeStyle;rounded=0;orthogonalLoop=1;jettySize=auto;html=1;exitX=1;exitY=0.5;exitDx=0;exitDy=0;entryX=0;entryY=1;entryDx=0;entryDy=0;" edge="1" parent="1" source="hCspTybFWiK93IbWxItk-145" target="hCspTybFWiK93IbWxItk-10">
          <mxGeometry relative="1" as="geometry">
            <Array as="points">
              <mxPoint x="310" y="635" />
            </Array>
          </mxGeometry>
        </mxCell>
        <mxCell id="hCspTybFWiK93IbWxItk-145" value="refer" style="shape=rhombus;perimeter=rhombusPerimeter;whiteSpace=wrap;html=1;align=center;" vertex="1" parent="1">
          <mxGeometry x="165" y="615" width="90" height="40" as="geometry" />
        </mxCell>
        <mxCell id="hCspTybFWiK93IbWxItk-147" value="" style="endArrow=none;html=1;rounded=0;exitX=0.5;exitY=0;exitDx=0;exitDy=0;entryX=0.5;entryY=1;entryDx=0;entryDy=0;" edge="1" parent="1" source="hCspTybFWiK93IbWxItk-127" target="hCspTybFWiK93IbWxItk-149">
          <mxGeometry relative="1" as="geometry">
            <mxPoint x="250" y="740" as="sourcePoint" />
            <mxPoint x="190" y="600" as="targetPoint" />
          </mxGeometry>
        </mxCell>
        <mxCell id="hCspTybFWiK93IbWxItk-149" value="quantity" style="ellipse;whiteSpace=wrap;html=1;align=center;" vertex="1" parent="1">
          <mxGeometry x="100" y="570" width="100" height="40" as="geometry" />
        </mxCell>
        <mxCell id="hCspTybFWiK93IbWxItk-151" value="discount" style="ellipse;whiteSpace=wrap;html=1;align=center;" vertex="1" parent="1">
          <mxGeometry x="30" y="630" width="100" height="40" as="geometry" />
        </mxCell>
        <mxCell id="hCspTybFWiK93IbWxItk-154" value="" style="endArrow=none;html=1;rounded=0;entryX=0.744;entryY=0.855;entryDx=0;entryDy=0;entryPerimeter=0;exitX=0.25;exitY=0;exitDx=0;exitDy=0;" edge="1" parent="1" source="hCspTybFWiK93IbWxItk-127" target="hCspTybFWiK93IbWxItk-151">
          <mxGeometry relative="1" as="geometry">
            <mxPoint x="250" y="740" as="sourcePoint" />
            <mxPoint x="410" y="740" as="targetPoint" />
          </mxGeometry>
        </mxCell>
        <mxCell id="hCspTybFWiK93IbWxItk-157" value="price" style="whiteSpace=wrap;html=1;align=center;" vertex="1" parent="1">
          <mxGeometry x="310" y="690" width="100" height="40" as="geometry" />
        </mxCell>
        <mxCell id="hCspTybFWiK93IbWxItk-158" value="have" style="shape=rhombus;perimeter=rhombusPerimeter;whiteSpace=wrap;html=1;align=center;" vertex="1" parent="1">
          <mxGeometry x="337.5" y="615" width="45" height="30" as="geometry" />
        </mxCell>
        <mxCell id="hCspTybFWiK93IbWxItk-159" value="" style="endArrow=none;html=1;rounded=0;entryX=0.5;entryY=1;entryDx=0;entryDy=0;exitX=0.5;exitY=0;exitDx=0;exitDy=0;" edge="1" parent="1" source="hCspTybFWiK93IbWxItk-157" target="hCspTybFWiK93IbWxItk-158">
          <mxGeometry relative="1" as="geometry">
            <mxPoint x="250" y="740" as="sourcePoint" />
            <mxPoint x="410" y="740" as="targetPoint" />
          </mxGeometry>
        </mxCell>
        <mxCell id="hCspTybFWiK93IbWxItk-160" value="" style="endArrow=none;html=1;rounded=0;exitX=0;exitY=0.5;exitDx=0;exitDy=0;entryX=1;entryY=0.5;entryDx=0;entryDy=0;" edge="1" parent="1" source="hCspTybFWiK93IbWxItk-157" target="hCspTybFWiK93IbWxItk-161">
          <mxGeometry relative="1" as="geometry">
            <mxPoint x="250" y="740" as="sourcePoint" />
            <mxPoint x="410" y="740" as="targetPoint" />
          </mxGeometry>
        </mxCell>
        <mxCell id="hCspTybFWiK93IbWxItk-161" value="refer" style="shape=rhombus;perimeter=rhombusPerimeter;whiteSpace=wrap;html=1;align=center;" vertex="1" parent="1">
          <mxGeometry x="230" y="690" width="60" height="40" as="geometry" />
        </mxCell>
        <mxCell id="hCspTybFWiK93IbWxItk-162" value="" style="endArrow=none;html=1;rounded=0;exitX=1;exitY=0.5;exitDx=0;exitDy=0;entryX=0;entryY=0.5;entryDx=0;entryDy=0;" edge="1" parent="1" source="hCspTybFWiK93IbWxItk-127" target="hCspTybFWiK93IbWxItk-161">
          <mxGeometry relative="1" as="geometry">
            <mxPoint x="250" y="740" as="sourcePoint" />
            <mxPoint x="240" y="710" as="targetPoint" />
          </mxGeometry>
        </mxCell>
        <mxCell id="hCspTybFWiK93IbWxItk-163" value="capture" style="shape=rhombus;perimeter=rhombusPerimeter;whiteSpace=wrap;html=1;align=center;" vertex="1" parent="1">
          <mxGeometry x="430" y="690" width="80" height="40" as="geometry" />
        </mxCell>
        <mxCell id="hCspTybFWiK93IbWxItk-164" value="time" style="whiteSpace=wrap;html=1;align=center;" vertex="1" parent="1">
          <mxGeometry x="420" y="600" width="100" height="40" as="geometry" />
        </mxCell>
        <mxCell id="hCspTybFWiK93IbWxItk-165" value="" style="shape=link;html=1;rounded=0;entryX=1;entryY=0.5;entryDx=0;entryDy=0;exitX=0;exitY=0.5;exitDx=0;exitDy=0;" edge="1" parent="1" source="hCspTybFWiK93IbWxItk-163" target="hCspTybFWiK93IbWxItk-157">
          <mxGeometry width="100" relative="1" as="geometry">
            <mxPoint x="280" y="560" as="sourcePoint" />
            <mxPoint x="380" y="560" as="targetPoint" />
          </mxGeometry>
        </mxCell>
        <mxCell id="hCspTybFWiK93IbWxItk-167" value="" style="endArrow=none;html=1;rounded=0;entryX=0.5;entryY=0;entryDx=0;entryDy=0;exitX=0.5;exitY=1;exitDx=0;exitDy=0;" edge="1" parent="1" source="hCspTybFWiK93IbWxItk-164" target="hCspTybFWiK93IbWxItk-163">
          <mxGeometry relative="1" as="geometry">
            <mxPoint x="250" y="560" as="sourcePoint" />
            <mxPoint x="410" y="560" as="targetPoint" />
          </mxGeometry>
        </mxCell>
      </root>
    </mxGraphModel>
  </diagram>
</mxfile>
